<?xml version="1.0" encoding="UTF-8" standalone="no"?>
<!DOCTYPE svg PUBLIC "-//W3C//DTD SVG 1.1//EN" "http://www.w3.org/Graphics/SVG/1.1/DTD/svg11.dtd">
<svg width="100%" height="100%" viewBox="0 0 8402 1713" version="1.1" xmlns="http://www.w3.org/2000/svg" xmlns:xlink="http://www.w3.org/1999/xlink" xml:space="preserve" xmlns:serif="http://www.serif.com/" style="fill-rule:evenodd;clip-rule:evenodd;stroke-linejoin:round;stroke-miterlimit:2;">
    <g transform="matrix(1,0,0,1,0.000926,-18.510965)">
        <g id="Seite-1" serif:id="Seite 1" transform="matrix(4.166667,0,0,4.166667,0,0)">
            <rect x="0" y="0" width="2046.88" height="414.863" style="fill:none;"/>
            <clipPath id="_clip1">
                <rect x="0" y="0" width="2046.88" height="414.863"/>
            </clipPath>
            <g clip-path="url(#_clip1)">
                <g id="Ebene-1" serif:id="Ebene 1">
                    <g transform="matrix(1,0,0,1,408.5228,126.413)">
                        <path d="M0,166.623C-0.776,167.658 -1.422,168.757 -1.358,168.951C-1.358,169.209 -1.552,169.597 -1.875,169.791C-2.78,170.438 -10.474,182.011 -10.474,182.787C-10.474,183.111 -10.668,183.434 -10.927,183.434C-11.25,183.434 -12.479,185.18 -13.707,187.313C-14.936,189.447 -16.164,191.193 -16.423,191.193C-16.746,191.193 -16.94,191.581 -16.94,192.098C-16.94,192.615 -17.134,193.133 -17.393,193.262C-18.104,193.521 -21.466,198.758 -21.466,199.534C-21.466,199.857 -21.919,200.245 -22.436,200.504C-22.953,200.697 -23.406,201.279 -23.406,201.797C-23.406,202.314 -23.6,202.831 -23.923,202.96C-24.182,203.025 -25.41,204.771 -26.639,206.711C-27.867,208.65 -29.031,210.396 -29.225,210.59C-29.419,210.784 -30.324,212.077 -31.165,213.5C-32.005,214.922 -33.105,216.474 -33.492,216.926C-33.945,217.314 -34.527,218.284 -34.721,218.996C-34.915,219.707 -35.432,220.289 -35.82,220.289C-36.208,220.289 -36.402,220.483 -36.143,220.677C-35.95,220.935 -36.079,221.452 -36.531,221.905C-36.984,222.358 -37.695,223.263 -38.083,223.909C-38.536,224.621 -40.217,227.142 -41.833,229.535C-43.45,231.992 -44.743,234.255 -44.743,234.578C-44.743,234.901 -45.002,235.16 -45.26,235.16C-45.583,235.16 -46.23,235.936 -46.747,236.906C-47.265,237.94 -47.846,238.845 -48.04,239.039C-48.234,239.233 -51.273,243.695 -54.765,249.061C-58.256,254.363 -61.36,258.889 -61.618,258.954C-61.942,259.083 -62.071,259.471 -61.812,259.794C-61.618,260.118 -61.812,260.376 -62.136,260.376C-62.524,260.376 -62.847,260.829 -62.847,261.346C-62.847,261.928 -63.3,262.51 -63.817,262.704C-64.334,262.963 -64.593,263.351 -64.399,263.674C-64.205,263.997 -64.399,264.256 -64.722,264.256C-65.11,264.256 -65.433,264.579 -65.433,264.967C-65.433,265.355 -65.951,266.325 -66.532,267.165C-67.89,268.911 -67.89,268.911 -74.421,278.804C-77.266,283.071 -79.917,286.95 -80.304,287.403C-80.822,287.985 -79.917,288.179 -75.972,288.244C-63.17,288.373 -17.716,288.761 1.746,288.826L23.277,288.955L24.829,287.144C25.669,286.11 26.316,285.011 26.38,284.752C26.38,284.494 26.962,283.653 27.674,282.877C28.385,282.101 28.967,281.067 28.967,280.614C28.967,280.161 29.29,279.774 29.678,279.774C30.001,279.774 30.195,279.515 30.001,279.256C29.807,278.933 30.26,278.351 30.906,277.834C31.553,277.317 32.006,276.735 31.876,276.541C31.682,276.282 32.135,275.571 32.846,274.924C33.557,274.278 34.139,273.437 34.139,273.114C34.139,272.726 34.85,271.497 35.756,270.398C36.596,269.234 37.113,268.135 36.92,267.877C36.661,267.683 36.79,267.489 37.178,267.489C37.566,267.489 39.958,264.126 42.545,260.053C45.131,255.98 47.847,252.035 48.493,251.324C49.14,250.613 49.528,250.031 49.398,250.031C48.881,250.031 56.834,238.199 57.675,237.617C58.063,237.358 58.127,237.1 57.869,237.1C57.545,237.1 57.933,236.324 58.644,235.419C59.42,234.449 60.002,233.285 60.002,232.768C60.002,231.992 57.093,228.694 48.881,220.159C47.135,218.414 45.778,216.862 45.778,216.733C45.778,216.603 45.131,215.763 44.355,214.987C42.933,213.564 38.407,208.392 33.428,202.573C32.199,201.215 30.648,199.469 29.936,198.693C28.902,197.594 25.54,193.714 20.884,188.219C19.915,187.055 16.876,183.369 9.893,174.705C0.841,163.584 1.681,164.295 0,166.623ZM-81.921,42.545C-82.632,43.645 -83.667,45.196 -84.184,45.972C-84.701,46.748 -85.8,48.429 -86.576,49.658C-88.387,52.373 -88.71,52.891 -91.943,57.546C-93.365,59.615 -94.529,61.425 -94.529,61.619C-94.529,61.813 -94.852,62.266 -95.24,62.718C-95.564,63.171 -99.314,68.732 -103.581,75.133C-107.784,81.534 -111.534,87.094 -111.922,87.547C-112.31,88 -112.633,88.452 -112.633,88.646C-112.633,89.228 -116.771,95.177 -117.289,95.371C-117.547,95.5 -117.806,96.017 -117.806,96.534C-117.806,97.052 -118.129,97.44 -118.517,97.44C-118.84,97.44 -119.034,97.698 -118.84,98.021C-118.582,98.345 -118.646,98.733 -118.905,98.862C-119.681,99.185 -123.625,105.004 -123.625,105.78C-123.625,106.104 -124.142,106.75 -124.724,107.074C-125.371,107.461 -125.629,107.785 -125.371,107.785C-125.112,107.785 -125.435,108.431 -126.211,109.207C-126.923,109.983 -127.504,111.018 -127.504,111.47C-127.504,111.923 -127.698,112.311 -127.957,112.311C-128.28,112.311 -129.315,113.798 -130.414,115.608C-131.449,117.419 -132.612,119.229 -133,119.682C-134.294,121.233 -136.557,124.531 -136.557,124.919C-136.557,125.178 -136.944,125.76 -137.332,126.212C-139.207,128.281 -139.725,128.992 -139.466,129.251C-139.337,129.38 -139.919,130.35 -140.759,131.32C-141.664,132.355 -142.376,133.389 -142.376,133.648C-142.376,133.906 -142.958,134.747 -143.669,135.587C-144.38,136.428 -144.962,137.463 -144.962,137.98C-144.962,138.497 -145.221,138.756 -145.544,138.562C-145.867,138.368 -146.32,138.885 -146.514,139.79C-146.772,140.695 -147.225,141.407 -147.548,141.407C-147.936,141.407 -148.195,141.73 -148.195,142.053C-148.195,142.829 -150.846,146.773 -151.557,147.096C-151.88,147.226 -152.074,147.614 -152.074,147.872C-152.074,148.648 -156.083,154.597 -156.73,154.855C-156.988,154.985 -157.247,155.373 -157.247,155.761C-157.247,156.472 -161.191,162.291 -161.902,162.614C-162.226,162.744 -162.42,163.132 -162.42,163.455C-162.42,164.36 -167.139,171.149 -167.786,171.149C-168.045,171.149 -168.174,171.408 -167.915,171.731C-167.721,172.054 -167.98,172.701 -168.368,173.218C-168.821,173.671 -170.825,176.516 -172.765,179.555C-174.704,182.593 -176.45,185.18 -176.644,185.374C-177.032,185.762 -179.424,189.253 -179.877,190.223C-180.847,192.098 -209.943,235.548 -210.525,235.936C-210.913,236.194 -210.977,236.453 -210.654,236.453C-210.331,236.453 -210.589,237.1 -211.301,237.876C-212.852,239.621 -215.891,244.341 -215.956,245.053C-215.956,245.376 -216.667,246.152 -217.443,246.863C-218.219,247.509 -218.607,248.091 -218.348,248.091C-218.025,248.091 -218.478,248.803 -219.318,249.708C-220.159,250.613 -220.547,251.324 -220.223,251.324C-219.9,251.324 -219.965,251.583 -220.288,251.842C-221.193,252.488 -223.973,256.432 -225.073,258.566C-225.59,259.6 -226.236,260.376 -226.56,260.376C-226.818,260.376 -227.077,260.635 -227.077,261.023C-227.077,261.346 -228.047,263.027 -229.211,264.708C-230.439,266.454 -231.603,268.329 -231.797,268.911C-232.056,269.558 -232.508,270.075 -232.896,270.075C-233.219,270.075 -233.543,270.528 -233.543,271.045C-233.543,271.562 -233.801,272.015 -234.189,272.015C-234.513,272.015 -234.836,272.273 -234.836,272.597C-234.836,272.985 -237.034,276.476 -239.75,280.42C-242.401,284.429 -244.47,287.791 -244.34,287.985C-244.017,288.244 -211.947,288.632 -164.101,288.826C-142.182,288.955 -140.889,288.89 -139.854,287.726C-138.69,286.304 -137.397,284.429 -136.75,283.006C-136.492,282.489 -135.781,281.455 -135.134,280.808C-134.552,280.161 -134.164,279.321 -134.358,278.998C-134.552,278.739 -134.423,278.48 -134.035,278.48C-133.647,278.48 -132.871,277.511 -132.289,276.347C-131.707,275.248 -130.996,274.148 -130.737,273.954C-130.543,273.76 -129.315,271.95 -128.086,269.881C-126.923,267.877 -125.694,266.196 -125.435,266.196C-125.112,266.196 -124.918,265.743 -124.918,265.226C-124.918,264.708 -124.595,264.256 -124.207,264.256C-123.884,264.256 -123.69,263.997 -123.884,263.674C-124.142,263.351 -124.078,262.963 -123.819,262.833C-123.043,262.51 -120.392,258.566 -120.392,257.79C-120.392,257.467 -120.069,257.143 -119.746,257.143C-119.358,257.143 -119.099,256.691 -119.099,256.174C-119.099,255.656 -118.84,255.204 -118.582,255.204C-118.258,255.204 -117.677,254.557 -117.224,253.717C-116.836,252.941 -115.931,251.389 -115.22,250.354C-114.508,249.255 -113.603,247.768 -113.215,246.928C-112.763,246.152 -112.181,245.505 -111.857,245.505C-111.599,245.505 -111.34,245.117 -111.34,244.665C-111.34,244.212 -110.823,243.242 -110.176,242.531C-109.594,241.884 -108.689,240.527 -108.172,239.557C-107.655,238.587 -106.62,237.1 -105.909,236.324C-105.133,235.548 -104.551,234.707 -104.616,234.513C-104.68,234.061 -98.797,225.203 -98.215,224.944C-97.956,224.815 -97.762,224.427 -97.762,224.104C-97.762,223.586 -92.137,214.599 -91.296,213.823C-91.102,213.629 -89.938,211.883 -88.71,209.944C-87.482,208.004 -86.188,206.193 -85.8,205.935C-85.477,205.676 -85.412,205.418 -85.671,205.418C-85.994,205.418 -85.8,204.965 -85.348,204.448C-83.343,202.249 -83.02,201.667 -83.343,201.279C-83.602,201.085 -83.408,200.892 -83.02,200.892C-82.568,200.892 -82.244,200.504 -82.244,199.986C-82.244,199.469 -81.986,198.952 -81.727,198.822C-81.404,198.693 -79.852,196.559 -78.3,194.102C-76.748,191.581 -75.261,189.447 -75.003,189.383C-74.744,189.253 -74.485,188.865 -74.485,188.542C-74.485,188.219 -73.451,186.473 -72.222,184.727C-70.994,182.981 -69.959,181.365 -69.959,181.106C-69.959,180.912 -69.571,180.395 -69.119,179.878C-68.731,179.425 -66.339,175.869 -63.817,171.99C-61.36,168.175 -59.097,164.877 -58.838,164.813C-58.515,164.683 -58.45,164.295 -58.709,163.972C-58.903,163.649 -58.58,163.196 -58.062,163.002C-57.48,162.808 -57.028,162.291 -57.028,161.968C-57.028,161.58 -55.993,159.834 -54.765,158.153C-53.536,156.407 -52.502,154.855 -52.502,154.791C-52.502,154.532 -41.769,138.174 -40.993,137.204C-40.734,136.816 -39.894,135.523 -39.182,134.294C-38.536,133.066 -37.566,131.773 -37.113,131.514C-36.725,131.255 -36.337,130.674 -36.337,130.35C-36.337,129.962 -35.626,128.734 -34.721,127.57C-33.816,126.406 -33.105,125.113 -33.105,124.725C-33.105,124.272 -32.846,123.949 -32.587,123.949C-32.264,123.949 -31.682,123.238 -31.294,122.397C-30.712,121.104 -30.971,120.458 -33.169,117.548C-34.527,115.738 -35.432,114.251 -35.174,114.251C-34.915,114.251 -35.044,113.992 -35.432,113.733C-36.273,113.216 -42.157,104.617 -42.157,103.905C-42.157,103.647 -42.739,102.935 -43.45,102.289C-44.161,101.642 -44.743,100.737 -44.743,100.22C-44.743,99.767 -45.002,99.379 -45.39,99.379C-45.713,99.379 -46.036,98.991 -46.036,98.474C-46.036,97.957 -46.295,97.44 -46.553,97.31C-47.071,97.116 -52.502,88.646 -52.502,88.064C-52.502,87.87 -53.084,87.094 -53.795,86.319C-54.506,85.543 -55.088,84.508 -55.088,84.056C-55.088,83.603 -55.347,83.215 -55.735,83.215C-56.058,83.215 -56.381,82.956 -56.381,82.633C-56.381,82.245 -57.222,80.693 -58.321,79.142C-59.356,77.525 -60.261,75.909 -60.261,75.521C-60.261,75.133 -60.519,74.81 -60.843,74.81C-61.166,74.81 -61.554,74.292 -61.748,73.646C-62.136,72.547 -64.14,68.99 -64.787,68.344C-64.981,68.15 -65.821,66.727 -66.662,65.111C-67.567,63.494 -68.408,62.072 -68.602,61.878C-68.86,61.684 -69.378,60.844 -69.765,59.938C-70.218,59.033 -71.899,55.994 -73.516,53.149C-75.197,50.304 -76.684,47.459 -76.878,46.813C-77.072,46.231 -77.46,45.714 -77.718,45.714C-78.236,45.714 -79.917,41.899 -79.723,40.994C-79.529,39.83 -80.757,40.735 -81.921,42.545ZM-137.914,-120.585C-138.755,-119.616 -140.048,-117.74 -140.759,-116.383C-141.47,-114.96 -142.634,-113.214 -143.346,-112.439C-144.057,-111.663 -145.221,-109.917 -145.932,-108.559C-146.643,-107.266 -147.678,-105.65 -148.26,-105.068C-148.777,-104.486 -149.811,-102.934 -150.523,-101.705C-151.945,-99.119 -152.139,-98.86 -154.337,-96.145C-155.243,-94.981 -155.954,-93.882 -155.954,-93.688C-155.954,-93.235 -162.355,-83.537 -163.001,-82.955C-163.195,-82.761 -163.971,-81.597 -164.618,-80.368C-165.329,-79.14 -166.04,-77.976 -166.234,-77.782C-166.687,-77.394 -174.187,-66.208 -174.704,-65.174C-175.222,-64.075 -178.842,-58.773 -179.554,-57.997C-179.877,-57.609 -180.782,-56.251 -181.493,-54.958C-182.205,-53.665 -182.981,-52.566 -183.239,-52.566C-183.562,-52.566 -183.756,-52.113 -183.756,-51.596C-183.756,-51.079 -184.015,-50.626 -184.403,-50.626C-184.726,-50.626 -185.05,-50.367 -185.05,-50.044C-185.05,-49.592 -196.494,-32.005 -197.335,-31.229C-197.852,-30.712 -199.21,-28.449 -199.856,-27.026C-200.179,-26.25 -200.891,-25.28 -201.473,-24.828C-202.055,-24.375 -202.507,-23.664 -202.507,-23.341C-202.507,-23.017 -203.089,-22.177 -203.8,-21.401C-204.512,-20.625 -205.093,-19.59 -205.093,-19.138C-205.093,-18.685 -205.352,-18.297 -205.611,-18.297C-206.193,-18.297 -208.197,-15.064 -208.197,-14.159C-208.197,-13.836 -208.456,-13.383 -208.844,-13.189C-209.749,-12.607 -214.145,-6.142 -214.145,-5.366C-214.145,-5.043 -214.339,-4.719 -214.663,-4.719C-214.921,-4.719 -215.697,-3.62 -216.408,-2.327C-217.12,-1.034 -218.025,0.324 -218.348,0.712C-218.736,1.1 -220.029,2.975 -221.193,4.915C-222.357,6.854 -223.65,8.794 -224.038,9.182C-224.685,9.893 -227.594,14.225 -230.633,19.139C-233.349,23.471 -239.103,31.877 -239.491,32.006C-239.814,32.136 -239.879,32.523 -239.621,32.847C-239.427,33.17 -239.556,33.429 -239.814,33.429C-240.138,33.429 -240.914,34.463 -241.56,35.692C-242.271,36.92 -243.047,37.955 -243.371,37.955C-243.694,37.955 -243.823,38.213 -243.565,38.537C-243.371,38.86 -243.5,39.312 -243.823,39.571C-244.728,40.088 -248.414,45.649 -248.414,46.425C-248.414,46.748 -248.673,47.007 -248.996,47.007C-249.319,47.007 -249.836,47.589 -250.03,48.3C-250.224,49.011 -250.806,49.981 -251.194,50.369C-251.647,50.822 -253.005,52.826 -254.233,54.766C-255.462,56.705 -256.625,58.451 -256.819,58.645C-257.013,58.839 -258.177,60.585 -259.406,62.524C-260.634,64.464 -261.863,66.145 -262.121,66.275C-262.445,66.404 -262.639,66.921 -262.639,67.374C-262.639,67.826 -262.833,68.344 -263.156,68.473C-263.414,68.538 -264.643,70.283 -265.871,72.223C-267.1,74.163 -268.328,76.038 -268.652,76.426C-268.91,76.749 -271.238,80.305 -273.824,84.249C-283.588,99.25 -284.751,100.996 -285.333,101.19C-285.657,101.319 -285.915,101.707 -285.915,102.03C-285.915,102.741 -291.54,111.406 -293.157,113.216C-293.803,113.927 -294.321,114.897 -294.321,115.35C-294.321,115.867 -294.773,116.384 -295.291,116.578C-295.808,116.837 -296.131,117.225 -295.937,117.483C-295.808,117.742 -296.196,118.453 -296.907,119.1C-297.618,119.746 -298.2,120.652 -298.2,121.169C-298.2,121.621 -298.523,122.009 -298.911,122.009C-299.235,122.009 -299.429,122.268 -299.235,122.591C-298.976,122.915 -299.105,123.302 -299.364,123.432C-299.687,123.496 -302.532,127.57 -305.7,132.354C-308.869,137.139 -311.649,141.213 -311.908,141.277C-312.231,141.407 -312.425,141.794 -312.425,142.118C-312.425,142.441 -313.459,144.187 -314.688,145.933C-315.916,147.678 -316.951,149.424 -316.951,149.812C-316.951,150.135 -317.209,150.459 -317.468,150.459C-317.791,150.459 -318.438,151.234 -318.955,152.204C-319.472,153.239 -319.99,154.144 -320.184,154.338C-320.378,154.532 -321.735,156.536 -323.287,158.864C-324.774,161.192 -326.455,163.649 -326.908,164.36C-329.818,168.433 -332.469,172.636 -332.469,173.153C-332.469,173.477 -332.727,173.735 -333.115,173.735C-333.438,173.735 -333.762,174.188 -333.762,174.705C-333.762,175.222 -334.02,175.675 -334.408,175.675C-334.732,175.675 -335.055,176.128 -335.055,176.645C-335.055,177.162 -335.314,177.615 -335.701,177.615C-336.025,177.615 -336.348,178.003 -336.348,178.52C-336.348,179.037 -336.542,179.554 -336.801,179.684C-337.577,180.007 -340.228,183.951 -340.228,184.727C-340.228,185.05 -340.486,185.374 -340.874,185.374C-341.197,185.374 -341.521,185.826 -341.521,186.343C-341.521,186.861 -341.779,187.313 -342.167,187.313C-342.491,187.313 -342.814,187.637 -342.814,187.96C-342.814,188.671 -345.012,192.033 -346.499,193.65C-346.952,194.102 -347.34,194.943 -347.34,195.46C-347.34,195.977 -347.598,196.365 -347.857,196.365C-348.18,196.365 -348.956,197.4 -349.667,198.628C-350.314,199.857 -351.09,200.891 -351.349,200.891C-351.672,200.891 -351.866,201.15 -351.866,201.473C-351.866,201.797 -353.741,204.9 -356.069,208.327C-358.396,211.754 -360.271,214.793 -360.271,215.181C-360.271,215.504 -360.53,215.763 -360.789,215.763C-361.112,215.763 -361.758,216.538 -362.276,217.508C-362.793,218.543 -363.31,219.448 -363.569,219.642C-364.345,220.353 -368.03,226.237 -368.03,226.819C-368.03,227.142 -368.289,227.401 -368.677,227.401C-369,227.401 -369.711,228.435 -370.229,229.664C-370.746,230.892 -371.522,231.927 -371.91,231.927C-372.298,231.927 -372.492,232.186 -372.298,232.444C-372.104,232.767 -372.75,233.802 -373.72,234.837C-374.69,235.871 -375.401,236.841 -375.272,236.906C-375.143,237.1 -378.375,242.272 -379.022,242.919C-379.41,243.307 -383.095,248.803 -383.548,249.708C-384.453,251.583 -400.682,275.571 -401.135,275.765C-401.393,275.894 -401.652,276.282 -401.652,276.605C-401.652,276.929 -403.269,279.515 -405.208,282.424C-407.213,285.334 -408.7,287.856 -408.506,287.985C-408.182,288.308 -314.623,289.084 -305.571,288.89C-304.666,288.825 -303.89,288.179 -303.373,286.886C-302.92,285.787 -302.338,284.946 -302.015,284.946C-301.692,284.946 -301.433,284.623 -301.433,284.299C-301.433,283.524 -298.782,279.579 -298.006,279.256C-297.748,279.127 -297.554,278.674 -297.554,278.222C-297.554,277.51 -296.972,276.67 -294.385,273.566C-294.062,273.114 -293.933,272.596 -294.127,272.403C-294.385,272.209 -294.191,272.015 -293.803,272.015C-293.351,272.015 -293.028,271.562 -293.028,271.045C-293.028,270.592 -292.575,269.881 -291.993,269.558C-291.411,269.234 -290.959,268.717 -290.959,268.394C-290.894,267.877 -287.984,263.027 -287.208,262.316C-287.014,262.122 -286.303,260.958 -285.657,259.73C-284.945,258.501 -284.234,257.337 -284.04,257.143C-283.458,256.626 -280.743,252.682 -280.743,252.359C-280.743,252.165 -278.868,249.255 -276.54,245.893C-274.212,242.531 -272.337,239.492 -272.337,239.104C-272.337,238.781 -272.143,238.393 -271.82,238.263C-271.303,238.005 -268.458,234.061 -268.458,233.543C-268.458,233.349 -268.134,232.832 -267.747,232.38C-267.423,231.927 -265.613,229.276 -263.738,226.431C-261.927,223.586 -260.311,221.129 -260.052,220.935C-259.858,220.741 -259.341,219.836 -258.824,218.866C-258.307,217.896 -257.401,216.474 -256.69,215.827C-256.044,215.116 -255.526,214.34 -255.526,214.211C-255.526,213.629 -243.047,194.814 -242.401,194.361C-242.078,194.167 -241.948,193.779 -242.078,193.585C-242.142,193.326 -241.819,192.615 -241.237,191.969C-240.655,191.322 -239.685,189.835 -238.974,188.736C-238.327,187.572 -237.551,186.667 -237.228,186.667C-236.97,186.667 -236.84,186.408 -237.099,186.085C-237.293,185.762 -237.034,185.115 -236.582,184.598C-235.159,183.175 -231.603,177.744 -231.603,177.033C-231.603,176.645 -231.28,176.322 -230.956,176.322C-230.568,176.322 -230.31,175.869 -230.31,175.352C-230.31,174.834 -229.987,174.382 -229.663,174.382C-229.275,174.382 -229.017,173.994 -229.017,173.477C-229.017,172.959 -228.758,172.442 -228.499,172.313C-228.241,172.183 -227.271,170.955 -226.43,169.533C-225.59,168.11 -224.62,166.623 -224.361,166.3C-223.391,165.136 -215.439,152.916 -215.439,152.657C-215.439,152.334 -211.365,146.45 -210.46,145.48C-210.072,145.027 -209.49,144.057 -209.296,143.346C-209.102,142.635 -208.65,142.053 -208.326,142.053C-208.068,142.053 -207.68,141.536 -207.421,140.889C-207.033,139.79 -205.675,137.462 -205.029,136.88C-204.835,136.687 -202.96,133.842 -200.826,130.479C-198.757,127.182 -196.494,123.884 -195.912,123.238C-195.266,122.527 -194.878,122.009 -195.072,122.009C-195.266,122.009 -194.36,120.587 -193.132,118.776C-191.903,117.031 -190.869,115.285 -190.869,114.897C-190.869,114.574 -190.675,114.25 -190.352,114.25C-190.093,114.25 -189.188,112.957 -188.283,111.341C-187.377,109.724 -186.472,108.431 -186.213,108.431C-185.89,108.431 -185.696,108.043 -185.696,107.591C-185.696,107.073 -185.114,106.168 -184.403,105.522C-183.692,104.875 -183.11,103.97 -183.11,103.453C-183.11,103 -182.787,102.612 -182.463,102.612C-182.075,102.612 -181.817,102.289 -181.817,101.965C-181.817,101.254 -178.778,96.34 -177.485,94.982C-177.097,94.595 -176.515,93.625 -176.321,92.913C-176.127,92.202 -175.674,91.62 -175.416,91.62C-175.092,91.62 -174.51,90.78 -174.058,89.681C-173.605,88.581 -173.023,87.741 -172.765,87.741C-172.506,87.741 -171.924,86.9 -171.472,85.801C-171.019,84.702 -170.437,83.861 -170.178,83.861C-169.92,83.861 -169.338,82.956 -168.885,81.922C-168.433,80.822 -167.786,79.982 -167.463,79.982C-167.14,79.982 -167.075,79.659 -167.269,79.335C-167.463,78.947 -167.463,78.689 -167.14,78.689C-166.881,78.689 -165.782,77.202 -164.683,75.456C-163.648,73.646 -162.549,72.223 -162.226,72.223C-161.967,72.223 -161.838,71.964 -162.032,71.641C-162.226,71.383 -161.838,70.607 -161.126,69.96C-160.415,69.313 -159.833,68.473 -159.833,68.085C-159.833,67.697 -159.122,66.533 -158.217,65.563C-157.312,64.593 -156.73,63.818 -156.859,63.818C-157.182,63.818 -148.324,50.175 -146.902,48.494C-146.578,48.041 -146.255,47.395 -146.255,47.007C-146.255,46.683 -145.932,46.36 -145.609,46.36C-145.221,46.36 -144.962,45.907 -144.962,45.39C-144.962,44.873 -144.639,44.42 -144.315,44.42C-143.928,44.42 -143.669,44.097 -143.669,43.774C-143.669,43.386 -142.634,41.64 -141.406,39.894C-140.177,38.149 -139.143,36.532 -139.143,36.338C-139.143,36.144 -138.561,35.368 -137.85,34.592C-137.138,33.817 -136.557,32.782 -136.557,32.329C-136.557,31.877 -136.233,31.489 -135.845,31.489C-135.522,31.489 -135.328,31.23 -135.522,30.972C-135.716,30.648 -135.263,30.066 -134.617,29.549C-133.97,29.032 -133.518,28.45 -133.647,28.256C-133.841,27.997 -133.388,27.286 -132.677,26.64C-131.966,25.993 -131.384,25.217 -131.384,24.958C-131.384,24.7 -129.121,21.014 -126.341,16.812C-123.496,12.609 -118.388,4.785 -114.896,-0.517C-111.405,-5.883 -108.237,-10.409 -107.849,-10.668C-107.461,-10.926 -107.396,-11.185 -107.719,-11.185C-108.043,-11.185 -107.849,-11.702 -107.331,-12.349C-106.362,-13.513 -106.297,-14.03 -107.137,-16.034C-109.918,-22.694 -111.987,-28.319 -111.987,-29.031C-111.987,-29.548 -112.245,-29.936 -112.633,-29.936C-112.957,-29.936 -113.215,-30.13 -113.151,-30.453C-112.957,-31.294 -114.832,-36.725 -115.478,-37.177C-115.866,-37.436 -115.931,-37.824 -115.672,-38.083C-115.414,-38.341 -115.478,-38.858 -115.802,-39.246C-116.254,-39.893 -119.616,-49.462 -120.004,-51.467C-120.134,-51.919 -120.392,-52.76 -120.586,-53.406C-120.845,-53.988 -121.233,-55.023 -121.491,-55.669C-121.685,-56.251 -121.944,-57.221 -122.073,-57.738C-122.332,-59.032 -123.625,-63.493 -124.401,-65.562C-124.724,-66.467 -125.048,-67.825 -125.112,-68.601C-125.177,-69.377 -125.371,-70.023 -125.565,-70.023C-125.823,-70.023 -126.017,-70.411 -126.082,-70.864C-126.082,-71.252 -126.276,-72.222 -126.47,-72.933C-126.664,-73.644 -127.44,-76.683 -128.086,-79.722C-128.798,-82.761 -129.38,-85.282 -129.444,-85.412C-129.574,-85.476 -129.638,-85.735 -129.703,-86.058C-130.026,-87.352 -130.931,-91.748 -131.061,-92.33C-131.125,-92.718 -131.255,-93.106 -131.319,-93.3C-131.513,-93.688 -131.837,-95.434 -132.225,-98.473C-132.418,-99.701 -132.742,-101.188 -132.936,-101.77C-133.194,-102.352 -133.324,-103.063 -133.259,-103.387C-133.194,-103.71 -133.259,-104.098 -133.324,-104.292C-133.582,-104.938 -133.97,-107.266 -134.229,-109.464C-134.358,-110.693 -134.552,-111.727 -134.617,-111.727C-134.746,-111.727 -135.199,-114.96 -135.328,-117.417C-135.393,-118.387 -135.716,-119.357 -136.039,-119.551C-136.363,-119.745 -136.298,-120.327 -135.91,-120.779C-134.488,-122.461 -136.427,-122.331 -137.914,-120.585Z" style="fill:rgb(212,17,22);fill-rule:nonzero;"/>
                    </g>
                    <g transform="matrix(0.24,0,0,0.24,421.662668,60.178229)">
                        <g transform="matrix(1667.14,0,0,1667.14,6774.91864,1246.17988)">
                        </g>
                        <text x="554.819px" y="1246.18px" style="font-family:'Play-Regular', 'Play';font-size:1667.14px;fill:white;">Mainsail</text>
                    </g>
                </g>
            </g>
        </g>
    </g>
</svg>
