<?xml version="1.0" encoding="UTF-8" standalone="no"?><!DOCTYPE svg PUBLIC "-//W3C//DTD SVG 1.1//EN"
        "http://www.w3.org/Graphics/SVG/1.1/DTD/svg11.dtd">
<svg width="100%" height="100%" viewBox="0 0 2017 411" version="1.1" xmlns="http://www.w3.org/2000/svg"
     xmlns:xlink="http://www.w3.org/1999/xlink" xml:space="preserve" xmlns:serif="http://www.serif.com/"
     style="fill-rule:evenodd;clip-rule:evenodd;stroke-linejoin:round;stroke-miterlimit:2;">
    <path d="M408.523,288.593c-0.776,1.035 -1.422,2.134 -1.358,2.328c0,0.258 -0.194,0.646 -0.517,0.84c-0.905,0.647 -8.599,12.22 -8.599,12.996c0,0.324 -0.194,0.647 -0.453,0.647c-0.323,0 -1.552,1.746 -2.78,3.879c-1.229,2.134 -2.457,3.88 -2.716,3.88c-0.323,0 -0.517,0.388 -0.517,0.905c0,0.517 -0.194,1.035 -0.453,1.164c-0.711,0.259 -4.073,5.496 -4.073,6.272c0,0.323 -0.453,0.711 -0.97,0.97c-0.517,0.193 -0.97,0.775 -0.97,1.293c0,0.517 -0.194,1.034 -0.517,1.163c-0.259,0.065 -1.487,1.811 -2.716,3.751c-1.228,1.939 -2.392,3.685 -2.586,3.879c-0.194,0.194 -1.099,1.487 -1.94,2.91c-0.84,1.422 -1.94,2.974 -2.327,3.426c-0.453,0.388 -1.035,1.358 -1.229,2.07c-0.194,0.711 -0.711,1.293 -1.099,1.293c-0.388,0 -0.582,0.194 -0.323,0.388c0.193,0.258 0.064,0.775 -0.388,1.228c-0.453,0.453 -1.164,1.358 -1.552,2.004c-0.453,0.712 -2.134,3.233 -3.75,5.626c-1.617,2.457 -2.91,4.72 -2.91,5.043c0,0.323 -0.259,0.582 -0.517,0.582c-0.323,0 -0.97,0.776 -1.487,1.746c-0.518,1.034 -1.099,1.939 -1.293,2.133c-0.194,0.194 -3.233,4.656 -6.725,10.022c-3.491,5.302 -6.595,9.828 -6.853,9.893c-0.324,0.129 -0.453,0.517 -0.194,0.84c0.194,0.324 0,0.582 -0.324,0.582c-0.388,0 -0.711,0.453 -0.711,0.97c0,0.582 -0.453,1.164 -0.97,1.358c-0.517,0.259 -0.776,0.647 -0.582,0.97c0.194,0.323 0,0.582 -0.323,0.582c-0.388,0 -0.711,0.323 -0.711,0.711c0,0.388 -0.518,1.358 -1.099,2.198c-1.358,1.746 -1.358,1.746 -7.889,11.639c-2.845,4.267 -5.496,8.146 -5.883,8.599c-0.518,0.582 0.387,0.776 4.332,0.841c12.802,0.129 58.256,0.517 77.718,0.582l21.531,0.129l1.552,-1.811c0.84,-1.034 1.487,-2.133 1.551,-2.392c0,-0.258 0.582,-1.099 1.294,-1.875c0.711,-0.776 1.293,-1.81 1.293,-2.263c0,-0.453 0.323,-0.84 0.711,-0.84c0.323,0 0.517,-0.259 0.323,-0.518c-0.194,-0.323 0.259,-0.905 0.905,-1.422c0.647,-0.517 1.1,-1.099 0.97,-1.293c-0.194,-0.259 0.259,-0.97 0.97,-1.617c0.711,-0.646 1.293,-1.487 1.293,-1.81c0,-0.388 0.711,-1.617 1.617,-2.716c0.84,-1.164 1.357,-2.263 1.164,-2.521c-0.259,-0.194 -0.13,-0.388 0.258,-0.388c0.388,0 2.78,-3.363 5.367,-7.436c2.586,-4.073 5.302,-8.018 5.948,-8.729c0.647,-0.711 1.035,-1.293 0.905,-1.293c-0.517,0 7.436,-11.832 8.277,-12.414c0.388,-0.259 0.452,-0.517 0.194,-0.517c-0.324,0 0.064,-0.776 0.775,-1.681c0.776,-0.97 1.358,-2.134 1.358,-2.651c0,-0.776 -2.909,-4.074 -11.121,-12.609c-1.746,-1.745 -3.103,-3.297 -3.103,-3.426c0,-0.13 -0.647,-0.97 -1.423,-1.746c-1.422,-1.423 -5.948,-6.595 -10.927,-12.414c-1.229,-1.358 -2.78,-3.104 -3.492,-3.88c-1.034,-1.099 -4.396,-4.979 -9.052,-10.474c-0.969,-1.164 -4.008,-4.85 -10.991,-13.514c-9.052,-11.121 -8.212,-10.41 -9.893,-8.082Zm-81.921,-124.078c-0.711,1.1 -1.746,2.651 -2.263,3.427c-0.517,0.776 -1.616,2.457 -2.392,3.686c-1.811,2.715 -2.134,3.233 -5.367,7.888c-1.422,2.069 -2.586,3.879 -2.586,4.073c0,0.194 -0.323,0.647 -0.711,1.099c-0.324,0.453 -4.074,6.014 -8.341,12.415c-4.203,6.401 -7.953,11.961 -8.341,12.414c-0.388,0.453 -0.711,0.905 -0.711,1.099c0,0.582 -4.138,6.531 -4.656,6.725c-0.258,0.129 -0.517,0.646 -0.517,1.163c0,0.518 -0.323,0.906 -0.711,0.906c-0.323,0 -0.517,0.258 -0.323,0.581c0.258,0.324 0.194,0.712 -0.065,0.841c-0.776,0.323 -4.72,6.142 -4.72,6.918c0,0.324 -0.517,0.97 -1.099,1.294c-0.647,0.387 -0.905,0.711 -0.647,0.711c0.259,0 -0.064,0.646 -0.84,1.422c-0.712,0.776 -1.293,1.811 -1.293,2.263c0,0.453 -0.194,0.841 -0.453,0.841c-0.323,0 -1.358,1.487 -2.457,3.297c-1.035,1.811 -2.198,3.621 -2.586,4.074c-1.294,1.551 -3.557,4.849 -3.557,5.237c0,0.259 -0.387,0.841 -0.775,1.293c-1.875,2.069 -2.393,2.78 -2.134,3.039c0.129,0.129 -0.453,1.099 -1.293,2.069c-0.905,1.035 -1.617,2.069 -1.617,2.328c0,0.258 -0.582,1.099 -1.293,1.939c-0.711,0.841 -1.293,1.876 -1.293,2.393c0,0.517 -0.259,0.776 -0.582,0.582c-0.323,-0.194 -0.776,0.323 -0.97,1.228c-0.258,0.905 -0.711,1.617 -1.034,1.617c-0.388,0 -0.647,0.323 -0.647,0.646c0,0.776 -2.651,4.72 -3.362,5.043c-0.323,0.13 -0.517,0.518 -0.517,0.776c0,0.776 -4.009,6.725 -4.656,6.983c-0.258,0.13 -0.517,0.518 -0.517,0.906c0,0.711 -3.944,6.53 -4.655,6.853c-0.324,0.13 -0.518,0.518 -0.518,0.841c0,0.905 -4.719,7.694 -5.366,7.694c-0.259,0 -0.388,0.259 -0.129,0.582c0.194,0.323 -0.065,0.97 -0.453,1.487c-0.453,0.453 -2.457,3.298 -4.397,6.337c-1.939,3.038 -3.685,5.625 -3.879,5.819c-0.388,0.388 -2.78,3.879 -3.233,4.849c-0.97,1.875 -30.066,45.325 -30.648,45.713c-0.388,0.258 -0.452,0.517 -0.129,0.517c0.323,0 0.065,0.647 -0.647,1.423c-1.551,1.745 -4.59,6.465 -4.655,7.177c0,0.323 -0.711,1.099 -1.487,1.81c-0.776,0.646 -1.164,1.228 -0.905,1.228c0.323,0 -0.13,0.712 -0.97,1.617c-0.841,0.905 -1.229,1.616 -0.905,1.616c0.323,0 0.258,0.259 -0.065,0.518c-0.905,0.646 -3.685,4.59 -4.785,6.724c-0.517,1.034 -1.163,1.81 -1.487,1.81c-0.258,0 -0.517,0.259 -0.517,0.647c0,0.323 -0.97,2.004 -2.134,3.685c-1.228,1.746 -2.392,3.621 -2.586,4.203c-0.259,0.647 -0.711,1.164 -1.099,1.164c-0.323,0 -0.647,0.453 -0.647,0.97c0,0.517 -0.258,0.97 -0.646,0.97c-0.324,0 -0.647,0.258 -0.647,0.582c0,0.388 -2.198,3.879 -4.914,7.823c-2.651,4.009 -4.72,7.371 -4.59,7.565c0.323,0.259 32.393,0.647 80.239,0.841c21.919,0.129 23.212,0.064 24.247,-1.1c1.164,-1.422 2.457,-3.297 3.104,-4.72c0.258,-0.517 0.969,-1.551 1.616,-2.198c0.582,-0.647 0.97,-1.487 0.776,-1.81c-0.194,-0.259 -0.065,-0.518 0.323,-0.518c0.388,0 1.164,-0.969 1.746,-2.133c0.582,-1.099 1.293,-2.199 1.552,-2.393c0.194,-0.194 1.422,-2.004 2.651,-4.073c1.163,-2.004 2.392,-3.685 2.651,-3.685c0.323,0 0.517,-0.453 0.517,-0.97c0,-0.518 0.323,-0.97 0.711,-0.97c0.323,0 0.517,-0.259 0.323,-0.582c-0.258,-0.323 -0.194,-0.711 0.065,-0.841c0.776,-0.323 3.427,-4.267 3.427,-5.043c0,-0.323 0.323,-0.647 0.646,-0.647c0.388,0 0.647,-0.452 0.647,-0.969c0,-0.518 0.259,-0.97 0.517,-0.97c0.324,0 0.905,-0.647 1.358,-1.487c0.388,-0.776 1.293,-2.328 2.004,-3.363c0.712,-1.099 1.617,-2.586 2.005,-3.426c0.452,-0.776 1.034,-1.423 1.358,-1.423c0.258,0 0.517,-0.388 0.517,-0.84c0,-0.453 0.517,-1.423 1.164,-2.134c0.582,-0.647 1.487,-2.004 2.004,-2.974c0.517,-0.97 1.552,-2.457 2.263,-3.233c0.776,-0.776 1.358,-1.617 1.293,-1.811c-0.064,-0.452 5.819,-9.31 6.401,-9.569c0.259,-0.129 0.453,-0.517 0.453,-0.84c0,-0.518 5.625,-9.505 6.466,-10.281c0.194,-0.194 1.358,-1.94 2.586,-3.879c1.228,-1.94 2.522,-3.751 2.91,-4.009c0.323,-0.259 0.388,-0.517 0.129,-0.517c-0.323,0 -0.129,-0.453 0.323,-0.97c2.005,-2.199 2.328,-2.781 2.005,-3.169c-0.259,-0.194 -0.065,-0.387 0.323,-0.387c0.452,0 0.776,-0.388 0.776,-0.906c0,-0.517 0.258,-1.034 0.517,-1.164c0.323,-0.129 1.875,-2.263 3.427,-4.72c1.552,-2.521 3.039,-4.655 3.297,-4.719c0.259,-0.13 0.518,-0.518 0.518,-0.841c0,-0.323 1.034,-2.069 2.263,-3.815c1.228,-1.746 2.263,-3.362 2.263,-3.621c0,-0.194 0.388,-0.711 0.84,-1.228c0.388,-0.453 2.78,-4.009 5.302,-7.888c2.457,-3.815 4.72,-7.113 4.979,-7.177c0.323,-0.13 0.388,-0.518 0.129,-0.841c-0.194,-0.323 0.129,-0.776 0.647,-0.97c0.582,-0.194 1.034,-0.711 1.034,-1.034c0,-0.388 1.035,-2.134 2.263,-3.815c1.229,-1.746 2.263,-3.298 2.263,-3.362c0,-0.259 10.733,-16.617 11.509,-17.587c0.259,-0.388 1.099,-1.681 1.811,-2.91c0.646,-1.228 1.616,-2.521 2.069,-2.78c0.388,-0.259 0.776,-0.84 0.776,-1.164c0,-0.388 0.711,-1.616 1.616,-2.78c0.905,-1.164 1.616,-2.457 1.616,-2.845c0,-0.453 0.259,-0.776 0.518,-0.776c0.323,0 0.905,-0.711 1.293,-1.552c0.582,-1.293 0.323,-1.939 -1.875,-4.849c-1.358,-1.81 -2.263,-3.297 -2.005,-3.297c0.259,0 0.13,-0.259 -0.258,-0.518c-0.841,-0.517 -6.725,-9.116 -6.725,-9.828c0,-0.258 -0.582,-0.97 -1.293,-1.616c-0.711,-0.647 -1.293,-1.552 -1.293,-2.069c0,-0.453 -0.259,-0.841 -0.647,-0.841c-0.323,0 -0.646,-0.388 -0.646,-0.905c0,-0.517 -0.259,-1.034 -0.517,-1.164c-0.518,-0.194 -5.949,-8.664 -5.949,-9.246c0,-0.194 -0.582,-0.97 -1.293,-1.745c-0.711,-0.776 -1.293,-1.811 -1.293,-2.263c0,-0.453 -0.259,-0.841 -0.647,-0.841c-0.323,0 -0.646,-0.259 -0.646,-0.582c0,-0.388 -0.841,-1.94 -1.94,-3.491c-1.035,-1.617 -1.94,-3.233 -1.94,-3.621c0,-0.388 -0.258,-0.711 -0.582,-0.711c-0.323,0 -0.711,-0.518 -0.905,-1.164c-0.388,-1.099 -2.392,-4.656 -3.039,-5.302c-0.194,-0.194 -1.034,-1.617 -1.875,-3.233c-0.905,-1.617 -1.746,-3.039 -1.94,-3.233c-0.258,-0.194 -0.776,-1.034 -1.163,-1.94c-0.453,-0.905 -2.134,-3.944 -3.751,-6.789c-1.681,-2.845 -3.168,-5.69 -3.362,-6.336c-0.194,-0.582 -0.582,-1.099 -0.84,-1.099c-0.518,0 -2.199,-3.815 -2.005,-4.72c0.194,-1.164 -1.034,-0.259 -2.198,1.551Zm-55.993,-163.13c-0.841,0.969 -2.134,2.845 -2.845,4.202c-0.711,1.423 -1.875,3.169 -2.587,3.944c-0.711,0.776 -1.875,2.522 -2.586,3.88c-0.711,1.293 -1.746,2.909 -2.328,3.491c-0.517,0.582 -1.551,2.134 -2.263,3.363c-1.422,2.586 -1.616,2.845 -3.814,5.56c-0.906,1.164 -1.617,2.263 -1.617,2.457c0,0.453 -6.401,10.151 -7.047,10.733c-0.194,0.194 -0.97,1.358 -1.617,2.587c-0.711,1.228 -1.422,2.392 -1.616,2.586c-0.453,0.388 -7.953,11.574 -8.47,12.608c-0.518,1.099 -4.138,6.401 -4.85,7.177c-0.323,0.388 -1.228,1.746 -1.939,3.039c-0.712,1.293 -1.488,2.392 -1.746,2.392c-0.323,0 -0.517,0.453 -0.517,0.97c0,0.517 -0.259,0.97 -0.647,0.97c-0.323,0 -0.647,0.259 -0.647,0.582c0,0.452 -11.444,18.039 -12.285,18.815c-0.517,0.517 -1.875,2.78 -2.521,4.203c-0.323,0.776 -1.035,1.746 -1.617,2.198c-0.582,0.453 -1.034,1.164 -1.034,1.487c0,0.324 -0.582,1.164 -1.293,1.94c-0.712,0.776 -1.293,1.811 -1.293,2.263c0,0.453 -0.259,0.841 -0.518,0.841c-0.582,0 -2.586,3.233 -2.586,4.138c0,0.323 -0.259,0.776 -0.647,0.97c-0.905,0.582 -5.301,7.047 -5.301,7.823c0,0.323 -0.194,0.647 -0.518,0.647c-0.258,0 -1.034,1.099 -1.745,2.392c-0.712,1.293 -1.617,2.651 -1.94,3.039c-0.388,0.388 -1.681,2.263 -2.845,4.203c-1.164,1.939 -2.457,3.879 -2.845,4.267c-0.647,0.711 -3.556,5.043 -6.595,9.957c-2.716,4.332 -8.47,12.738 -8.858,12.867c-0.323,0.13 -0.388,0.517 -0.13,0.841c0.194,0.323 0.065,0.582 -0.193,0.582c-0.324,0 -1.1,1.034 -1.746,2.263c-0.711,1.228 -1.487,2.263 -1.811,2.263c-0.323,0 -0.452,0.258 -0.194,0.582c0.194,0.323 0.065,0.775 -0.258,1.034c-0.905,0.517 -4.591,6.078 -4.591,6.854c0,0.323 -0.259,0.582 -0.582,0.582c-0.323,0 -0.84,0.582 -1.034,1.293c-0.194,0.711 -0.776,1.681 -1.164,2.069c-0.453,0.453 -1.811,2.457 -3.039,4.397c-1.229,1.939 -2.392,3.685 -2.586,3.879c-0.194,0.194 -1.358,1.94 -2.587,3.879c-1.228,1.94 -2.457,3.621 -2.715,3.751c-0.324,0.129 -0.518,0.646 -0.518,1.099c0,0.452 -0.194,0.97 -0.517,1.099c-0.258,0.065 -1.487,1.81 -2.715,3.75c-1.229,1.94 -2.457,3.815 -2.781,4.203c-0.258,0.323 -2.586,3.879 -5.172,7.823c-9.764,15.001 -10.927,16.747 -11.509,16.941c-0.324,0.129 -0.582,0.517 -0.582,0.84c0,0.711 -5.625,9.376 -7.242,11.186c-0.646,0.711 -1.164,1.681 -1.164,2.134c0,0.517 -0.452,1.034 -0.97,1.228c-0.517,0.259 -0.84,0.647 -0.646,0.905c0.129,0.259 -0.259,0.97 -0.97,1.617c-0.711,0.646 -1.293,1.552 -1.293,2.069c0,0.452 -0.323,0.84 -0.711,0.84c-0.324,0 -0.518,0.259 -0.324,0.582c0.259,0.324 0.13,0.711 -0.129,0.841c-0.323,0.064 -3.168,4.138 -6.336,8.922c-3.169,4.785 -5.949,8.859 -6.208,8.923c-0.323,0.13 -0.517,0.517 -0.517,0.841c0,0.323 -1.034,2.069 -2.263,3.815c-1.228,1.745 -2.263,3.491 -2.263,3.879c0,0.323 -0.258,0.647 -0.517,0.647c-0.323,0 -0.97,0.775 -1.487,1.745c-0.517,1.035 -1.035,1.94 -1.229,2.134c-0.194,0.194 -1.551,2.198 -3.103,4.526c-1.487,2.328 -3.168,4.785 -3.621,5.496c-2.91,4.073 -5.561,8.276 -5.561,8.793c0,0.324 -0.258,0.582 -0.646,0.582c-0.323,0 -0.647,0.453 -0.647,0.97c0,0.517 -0.258,0.97 -0.646,0.97c-0.324,0 -0.647,0.453 -0.647,0.97c0,0.517 -0.259,0.97 -0.646,0.97c-0.324,0 -0.647,0.388 -0.647,0.905c0,0.517 -0.194,1.034 -0.453,1.164c-0.776,0.323 -3.427,4.267 -3.427,5.043c0,0.323 -0.258,0.647 -0.646,0.647c-0.323,0 -0.647,0.452 -0.647,0.969c0,0.518 -0.258,0.97 -0.646,0.97c-0.324,0 -0.647,0.324 -0.647,0.647c0,0.711 -2.198,4.073 -3.685,5.69c-0.453,0.452 -0.841,1.293 -0.841,1.81c0,0.517 -0.258,0.905 -0.517,0.905c-0.323,0 -1.099,1.035 -1.81,2.263c-0.647,1.229 -1.423,2.263 -1.682,2.263c-0.323,0 -0.517,0.259 -0.517,0.582c0,0.324 -1.875,3.427 -4.203,6.854c-2.327,3.427 -4.202,6.466 -4.202,6.854c0,0.323 -0.259,0.582 -0.518,0.582c-0.323,0 -0.969,0.775 -1.487,1.745c-0.517,1.035 -1.034,1.94 -1.293,2.134c-0.776,0.711 -4.461,6.595 -4.461,7.177c0,0.323 -0.259,0.582 -0.647,0.582c-0.323,0 -1.034,1.034 -1.552,2.263c-0.517,1.228 -1.293,2.263 -1.681,2.263c-0.388,0 -0.582,0.259 -0.388,0.517c0.194,0.323 -0.452,1.358 -1.422,2.393c-0.97,1.034 -1.681,2.004 -1.552,2.069c0.129,0.194 -3.103,5.366 -3.75,6.013c-0.388,0.388 -4.073,5.884 -4.526,6.789c-0.905,1.875 -17.134,25.863 -17.587,26.057c-0.258,0.129 -0.517,0.517 -0.517,0.84c0,0.324 -1.617,2.91 -3.556,5.819c-2.005,2.91 -3.492,5.432 -3.298,5.561c0.324,0.323 93.883,1.099 102.935,0.905c0.905,-0.065 1.681,-0.711 2.198,-2.004c0.453,-1.099 1.035,-1.94 1.358,-1.94c0.323,0 0.582,-0.323 0.582,-0.647c0,-0.775 2.651,-4.72 3.427,-5.043c0.258,-0.129 0.452,-0.582 0.452,-1.034c0,-0.712 0.582,-1.552 3.169,-4.656c0.323,-0.452 0.452,-0.97 0.258,-1.163c-0.258,-0.194 -0.064,-0.388 0.324,-0.388c0.452,0 0.775,-0.453 0.775,-0.97c0,-0.453 0.453,-1.164 1.035,-1.487c0.582,-0.324 1.034,-0.841 1.034,-1.164c0.065,-0.517 2.975,-5.367 3.751,-6.078c0.194,-0.194 0.905,-1.358 1.551,-2.586c0.712,-1.229 1.423,-2.393 1.617,-2.587c0.582,-0.517 3.297,-4.461 3.297,-4.784c0,-0.194 1.875,-3.104 4.203,-6.466c2.328,-3.362 4.203,-6.401 4.203,-6.789c0,-0.323 0.194,-0.711 0.517,-0.841c0.517,-0.258 3.362,-4.202 3.362,-4.72c0,-0.194 0.324,-0.711 0.711,-1.163c0.324,-0.453 2.134,-3.104 4.009,-5.949c1.811,-2.845 3.427,-5.302 3.686,-5.496c0.194,-0.194 0.711,-1.099 1.228,-2.069c0.517,-0.97 1.423,-2.392 2.134,-3.039c0.646,-0.711 1.164,-1.487 1.164,-1.616c0,-0.582 12.479,-19.397 13.125,-19.85c0.323,-0.194 0.453,-0.582 0.323,-0.776c-0.064,-0.259 0.259,-0.97 0.841,-1.616c0.582,-0.647 1.552,-2.134 2.263,-3.233c0.647,-1.164 1.423,-2.069 1.746,-2.069c0.258,0 0.388,-0.259 0.129,-0.582c-0.194,-0.323 0.065,-0.97 0.517,-1.487c1.423,-1.423 4.979,-6.854 4.979,-7.565c0,-0.388 0.323,-0.711 0.647,-0.711c0.388,0 0.646,-0.453 0.646,-0.97c0,-0.518 0.323,-0.97 0.647,-0.97c0.388,0 0.646,-0.388 0.646,-0.905c0,-0.518 0.259,-1.035 0.518,-1.164c0.258,-0.13 1.228,-1.358 2.069,-2.78c0.84,-1.423 1.81,-2.91 2.069,-3.233c0.97,-1.164 8.922,-13.384 8.922,-13.643c0,-0.323 4.074,-6.207 4.979,-7.177c0.388,-0.453 0.97,-1.423 1.164,-2.134c0.194,-0.711 0.646,-1.293 0.97,-1.293c0.258,0 0.646,-0.517 0.905,-1.164c0.388,-1.099 1.746,-3.427 2.392,-4.009c0.194,-0.193 2.069,-3.038 4.203,-6.401c2.069,-3.297 4.332,-6.595 4.914,-7.241c0.646,-0.711 1.034,-1.229 0.84,-1.229c-0.194,0 0.712,-1.422 1.94,-3.233c1.229,-1.745 2.263,-3.491 2.263,-3.879c0,-0.323 0.194,-0.647 0.517,-0.647c0.259,0 1.164,-1.293 2.069,-2.909c0.906,-1.617 1.811,-2.91 2.07,-2.91c0.323,0 0.517,-0.388 0.517,-0.84c0,-0.518 0.582,-1.423 1.293,-2.069c0.711,-0.647 1.293,-1.552 1.293,-2.069c0,-0.453 0.323,-0.841 0.647,-0.841c0.388,0 0.646,-0.323 0.646,-0.647c0,-0.711 3.039,-5.625 4.332,-6.983c0.388,-0.387 0.97,-1.357 1.164,-2.069c0.194,-0.711 0.647,-1.293 0.905,-1.293c0.324,0 0.906,-0.84 1.358,-1.939c0.453,-1.1 1.035,-1.94 1.293,-1.94c0.259,0 0.841,-0.841 1.293,-1.94c0.453,-1.099 1.035,-1.94 1.294,-1.94c0.258,0 0.84,-0.905 1.293,-1.939c0.452,-1.1 1.099,-1.94 1.422,-1.94c0.323,0 0.388,-0.323 0.194,-0.647c-0.194,-0.388 -0.194,-0.646 0.129,-0.646c0.259,0 1.358,-1.487 2.457,-3.233c1.035,-1.81 2.134,-3.233 2.457,-3.233c0.259,0 0.388,-0.259 0.194,-0.582c-0.194,-0.258 0.194,-1.034 0.906,-1.681c0.711,-0.647 1.293,-1.487 1.293,-1.875c0,-0.388 0.711,-1.552 1.616,-2.522c0.905,-0.97 1.487,-1.745 1.358,-1.745c-0.323,0 8.535,-13.643 9.957,-15.324c0.324,-0.453 0.647,-1.099 0.647,-1.487c0,-0.324 0.323,-0.647 0.646,-0.647c0.388,0 0.647,-0.453 0.647,-0.97c0,-0.517 0.323,-0.97 0.647,-0.97c0.387,0 0.646,-0.323 0.646,-0.646c0,-0.388 1.035,-2.134 2.263,-3.88c1.229,-1.745 2.263,-3.362 2.263,-3.556c0,-0.194 0.582,-0.97 1.293,-1.746c0.712,-0.775 1.293,-1.81 1.293,-2.263c0,-0.452 0.324,-0.84 0.712,-0.84c0.323,0 0.517,-0.259 0.323,-0.517c-0.194,-0.324 0.259,-0.906 0.905,-1.423c0.647,-0.517 1.099,-1.099 0.97,-1.293c-0.194,-0.259 0.259,-0.97 0.97,-1.616c0.711,-0.647 1.293,-1.423 1.293,-1.682c0,-0.258 2.263,-3.944 5.043,-8.146c2.845,-4.203 7.953,-12.027 11.445,-17.329c3.491,-5.366 6.659,-9.892 7.047,-10.151c0.388,-0.258 0.453,-0.517 0.13,-0.517c-0.324,0 -0.13,-0.517 0.388,-1.164c0.969,-1.164 1.034,-1.681 0.194,-3.685c-2.781,-6.66 -4.85,-12.285 -4.85,-12.997c0,-0.517 -0.258,-0.905 -0.646,-0.905c-0.324,0 -0.582,-0.194 -0.518,-0.517c0.194,-0.841 -1.681,-6.272 -2.327,-6.724c-0.388,-0.259 -0.453,-0.647 -0.194,-0.906c0.258,-0.258 0.194,-0.775 -0.13,-1.163c-0.452,-0.647 -3.814,-10.216 -4.202,-12.221c-0.13,-0.452 -0.388,-1.293 -0.582,-1.939c-0.259,-0.582 -0.647,-1.617 -0.905,-2.263c-0.194,-0.582 -0.453,-1.552 -0.582,-2.069c-0.259,-1.294 -1.552,-5.755 -2.328,-7.824c-0.323,-0.905 -0.647,-2.263 -0.711,-3.039c-0.065,-0.776 -0.259,-1.422 -0.453,-1.422c-0.258,0 -0.452,-0.388 -0.517,-0.841c0,-0.388 -0.194,-1.358 -0.388,-2.069c-0.194,-0.711 -0.97,-3.75 -1.616,-6.789c-0.712,-3.039 -1.294,-5.56 -1.358,-5.69c-0.13,-0.064 -0.194,-0.323 -0.259,-0.646c-0.323,-1.294 -1.228,-5.69 -1.358,-6.272c-0.064,-0.388 -0.194,-0.776 -0.258,-0.97c-0.194,-0.388 -0.518,-2.134 -0.906,-5.173c-0.193,-1.228 -0.517,-2.715 -0.711,-3.297c-0.258,-0.582 -0.388,-1.293 -0.323,-1.617c0.065,-0.323 0,-0.711 -0.065,-0.905c-0.258,-0.646 -0.646,-2.974 -0.905,-5.172c-0.129,-1.229 -0.323,-2.263 -0.388,-2.263c-0.129,0 -0.582,-3.233 -0.711,-5.69c-0.065,-0.97 -0.388,-1.94 -0.711,-2.134c-0.324,-0.194 -0.259,-0.776 0.129,-1.228c1.422,-1.682 -0.517,-1.552 -2.004,0.194Z" style="fill:#d41116;fill-rule:nonzero;"/>
    <path d="M588.429,95.145l58.016,0l83.224,216.061l1.2,0.4l78.822,-216.461l56.016,0l0,259.674l-34.01,0l0,-219.662l-2.001,0l-83.624,219.662l-34.81,0l-86.024,-219.662l-2.001,0l0,219.662l-34.81,0l0,-259.674Z"
          style="fill:#ffffff;fill-rule:nonzero;"/>
    <path d="M990.143,358.82c-18.405,0 -32.609,-1.734 -42.612,-5.201c-10.003,-3.468 -17.205,-9.603 -21.606,-18.405c-4.401,-8.802 -6.602,-21.473 -6.602,-38.011c0,-14.671 2.067,-26.074 6.202,-34.21c4.135,-8.136 11.203,-13.937 21.206,-17.405c10.003,-3.468 24.207,-5.201 42.612,-5.201l58.016,0l0,-30.809c0,-7.202 -1.4,-12.737 -4.201,-16.605c-2.801,-3.868 -7.469,-6.602 -14.004,-8.202c-6.535,-1.6 -16.071,-2.401 -28.608,-2.401c-20.006,0 -42.145,1.6 -66.419,4.801l0,-26.407c26.407,-2.401 50.281,-3.601 71.62,-3.601c22.406,0 38.944,1.667 49.614,5.001c10.67,3.334 18.005,9.136 22.006,17.405c4.001,8.269 6.002,21.073 6.002,38.411l0,136.839l-34.81,0l0,-18.405c-2.934,14.938 -22.406,22.406 -58.417,22.406Zm6.002,-23.607c13.07,0 24.14,-0.934 33.209,-2.801c12.003,-2.401 18.005,-8.002 18.005,-16.805l0,-52.815l-55.616,0c-11.47,0 -19.739,0.867 -24.807,2.601c-5.068,1.734 -8.402,5.001 -10.003,9.803c-1.6,4.801 -2.401,12.537 -2.401,23.207c0,9.603 0.934,17.005 2.801,22.206c1.867,5.201 5.201,8.936 10.003,11.203c4.801,2.267 12.003,3.401 21.606,3.401l7.202,0Z"
          style="fill:#ffffff;fill-rule:nonzero;"/>
    <path d="M1145.787,91.144l36.01,0l0,37.611l-36.01,0l0,-37.611Zm0,70.02l36.01,0l0,193.655l-36.01,0l0,-193.655Z"
          style="fill:#ffffff;fill-rule:nonzero;"/>
    <path d="M1244.215,161.164l36.01,0l0,23.607c3.734,-18.405 24.94,-27.608 63.618,-27.608c24.807,0 42.212,4.468 52.215,13.404c10.003,8.936 15.004,23.007 15.004,42.212l0,142.04l-36.01,0l0,-140.04c0,-5.068 -0.4,-9.203 -1.2,-12.404c-0.8,-3.201 -2.401,-6.402 -4.801,-9.603c-5.335,-6.669 -17.205,-10.003 -35.61,-10.003c-14.137,0 -25.007,1 -32.609,3.001c-7.602,2.001 -12.937,5.268 -16.005,9.803c-3.068,4.535 -4.601,10.936 -4.601,19.205l0,140.04l-36.01,0l0,-193.655Z"
          style="fill:#ffffff;fill-rule:nonzero;"/>
    <path d="M1532.697,358.82c-20.539,0 -42.679,-1.6 -66.419,-4.801l0,-27.608c31.209,5.068 53.615,7.602 67.219,7.602c17.072,0 29.342,-1.667 36.81,-5.001c7.469,-3.334 11.203,-9.536 11.203,-18.605l0,-19.606c0,-8.269 -2.801,-14.137 -8.402,-17.605c-5.602,-3.468 -14.671,-5.201 -27.208,-5.201l-22.006,0c-20.006,0 -35.277,-4.135 -45.813,-12.404c-10.536,-8.269 -15.804,-19.872 -15.804,-34.81l0,-18.005c0,-30.409 28.808,-45.613 86.425,-45.613c4.268,0 23.873,1.067 58.817,3.201l0,26.007c-23.74,-3.734 -43.879,-5.602 -60.417,-5.602c-18.939,0 -31.876,1.867 -38.811,5.602c-6.935,3.734 -10.403,10.003 -10.403,18.805l0,16.405c0,13.07 11.87,19.606 35.61,19.606l22.406,0c40.812,0 61.217,15.204 61.217,45.613l0,16.805c0,20.006 -6.935,34.21 -20.806,42.612c-13.871,8.402 -35.077,12.604 -63.618,12.604Z"
          style="fill:#ffffff;fill-rule:nonzero;"/>
    <path d="M1726.352,358.82c-18.405,0 -32.609,-1.734 -42.612,-5.201c-10.003,-3.468 -17.205,-9.603 -21.606,-18.405c-4.401,-8.802 -6.602,-21.473 -6.602,-38.011c0,-14.671 2.067,-26.074 6.202,-34.21c4.135,-8.136 11.203,-13.937 21.206,-17.405c10.003,-3.468 24.207,-5.201 42.612,-5.201l58.016,0l0,-30.809c-0,-7.202 -1.4,-12.737 -4.201,-16.605c-2.801,-3.868 -7.469,-6.602 -14.004,-8.202c-6.535,-1.6 -16.071,-2.401 -28.608,-2.401c-20.006,0 -42.145,1.6 -66.419,4.801l0,-26.407c26.407,-2.401 50.281,-3.601 71.62,-3.601c22.406,0 38.944,1.667 49.614,5.001c10.67,3.334 18.005,9.136 22.006,17.405c4.001,8.269 6.002,21.073 6.002,38.411l0,136.839l-34.81,0l0,-18.405c-2.934,14.938 -22.406,22.406 -58.417,22.406Zm6.002,-23.607c13.07,0 24.14,-0.934 33.209,-2.801c12.003,-2.401 18.005,-8.002 18.005,-16.805l0,-52.815l-55.616,0c-11.47,0 -19.739,0.867 -24.807,2.601c-5.068,1.734 -8.402,5.001 -10.003,9.803c-1.6,4.801 -2.401,12.537 -2.401,23.207c0,9.603 0.934,17.005 2.801,22.206c1.867,5.201 5.201,8.936 10.003,11.203c4.801,2.267 12.003,3.401 21.606,3.401l7.202,0Z"
          style="fill:#ffffff;fill-rule:nonzero;"/>
    <path d="M1881.996,91.144l36.01,0l0,37.611l-36.01,0l0,-37.611Zm0,70.02l36.01,0l0,193.655l-36.01,0l0,-193.655Z"
          style="fill:#ffffff;fill-rule:nonzero;"/>
    <rect x="1980.424" y="74.739" width="36.01" height="280.08" style="fill:#ffffff;fill-rule:nonzero;"/>
</svg>